<svg xmlns="http://www.w3.org/2000/svg" xmlns:xlink="http://www.w3.org/1999/xlink" width="482.863" height="391" viewBox="0 0 482.863 391">
  <defs>
    <clipPath id="clip-path">
      <rect id="Rect치ngulo_18" data-name="Rect치ngulo 18" width="482.863" height="271.914" fill="#f0f6fc"/>
    </clipPath>
    <clipPath id="clip-path-2">
      <rect id="Rect치ngulo_16" data-name="Rect치ngulo 16" width="194.257" height="391" fill="none"/>
    </clipPath>
  </defs>
  <g id="Grupo_11" data-name="Grupo 11" transform="translate(195.994 45.48)">
    <g id="Grupo_13" data-name="Grupo 13" transform="translate(-195.994 -1.645)">
      <g id="Grupo_12" data-name="Grupo 12" transform="translate(0 0)" clip-path="url(#clip-path)">
        <path id="Trazado_30" data-name="Trazado 30" d="M482.863,50.983V220.292c0,27.149-28.508,45.461-62.95,49.158a481.139,481.139,0,0,1-55.147,2.449c-7.992-.045-16.5-.213-25.7-.493-7.511-.228-15.485-.529-24.023-.9h0c-17.726-.762-37.877-1.8-61.359-3.058-15.628-.834-36.45-.939-59.054-.693-4.169.047-8.4.1-12.668.17-15.071.237-30.631.592-45.738.963-27.962.686-54.376,1.427-73.275,1.559C28.185,269.692,0,247.441,0,220.292V50.983C0,23.833,28.244.228,62.95,1.824c32.231,1.483,79.638,7.355,129.058,3.759,58.775-4.275,170.336-7.908,227.9-3.759,34.62,2.5,62.95,22.009,62.95,49.158" transform="translate(0 0.004)" fill="#f0f6fc"/>
      </g>
    </g>
    <g id="Grupo_7" data-name="Grupo 7" transform="translate(-22.077 -45.48)" clip-path="url(#clip-path-2)">
      <path id="Trazado_1" data-name="Trazado 1" d="M163.171,244.391c0,8.988-34.559,16.274-77.191,16.274S8.791,253.379,8.791,244.391,43.35,228.118,85.98,228.118s77.191,7.285,77.191,16.273" transform="translate(5.027 130.335)" fill="#ecedeb"/>
      <path id="Trazado_2" data-name="Trazado 2" d="M15.43,21.755s6.691,10.033,6.691,17.558a104.8,104.8,0,0,1-1.256,15.049L40.519,48.51,37.174,19.247Z" transform="translate(8.823 10.997)" fill="#f2957e"/>
      <path id="Trazado_3" data-name="Trazado 3" d="M51.477.462A23.258,23.258,0,0,0,36.906,2.235c-6.271,2.926-8.362,6.689-10.452,7.107s-9.618-1.254-9.618.418.418,6.271.418,6.271S13.49,23.137,11.817,26.9s3.763,7.106,10.036,8.36,14.635-.836,14.635-.836a169.385,169.385,0,0,0,1.674,20.9c1.672,12.123,4.6,61.452,11.708,83.19s18.4,30.517,28.016,30.935,5.437-13.795,5.437-13.795,12.544,17.557,35.125,18.812,30.526-5.853,27.181-16.722S133.5,138.934,133.5,138.934s23.835,2.926,23-15.885S128.484,91.7,128.484,91.7s18.818-9.2,12.963-21.738S108.83,58.671,93.359,50.728,76.2,26.14,72.031,17.284c-4-8.5-11.774-15.069-20.554-16.821" transform="translate(6.582 0)" fill="#f6ba99"/>
      <path id="Trazado_4" data-name="Trazado 4" d="M112.724,94.593l.066-.317c4.305,1.084,12.46,2.981,12.519,1.783.082-1.626-11.642-4.851-11.642-4.851l-.24-.028.05-.25c3.686.957,13.712,3.433,13.778,2.106.082-1.626-11.642-4.851-11.642-4.851l-1.533-.176.333-1.622c3.535.693,9.733,1.779,9.821.883.119-1.252-9.316-3.333-9.316-3.333l-10.4-3.146s5.465-.154,8.423-.548-.209-1.87-1.933-2.134-9.536-.046-9.536-.046L81.84,85.8s1.581.737,9.025,4.279,21.3,7.217,21.3,7.217,5.366,1.521,5.555.96c.231-.691-2.581-2.368-5-3.663" transform="translate(46.796 44.553)" fill="#f2957e"/>
      <path id="Trazado_5" data-name="Trazado 5" d="M138.371,97.13S106.279,89.695,87.265,80.5C65.608,70.02,42.2,51.511,36.614,47.32s-13.044-4.084-17.934,4.3,4.31,14.911,11.3,19.45,56.94,26.193,70.215,30.732,39.472,11.873,39.472,11.873Z" transform="translate(9.895 25.487)" fill="#f2957e"/>
      <path id="Trazado_6" data-name="Trazado 6" d="M119.4,91.507s18.818-9.2,12.963-21.738S99.744,58.482,84.273,50.539,67.113,25.951,62.945,17.095C58.978,8.668,51.309,2.153,42.628.33l-2.681,1.3s5.019,4.181,2.51,10.033-9.618,11.287-9.618,11.287,6.271,1.673,4.6,5.435S27.4,34.237,27.4,34.237a169.561,169.561,0,0,0,1.672,20.9c1.674,12.123,4.6,61.451,11.71,83.189s18.4,30.517,28.016,30.935,5.437-13.795,5.437-13.795,12.544,17.558,35.125,18.812,30.526-5.853,27.181-16.722-12.126-18.812-12.126-18.812,23.835,2.927,23-15.885S119.4,91.507,119.4,91.507" transform="translate(15.668 0.189)" fill="#393762"/>
      <path id="Trazado_7" data-name="Trazado 7" d="M64.314,178.909s46.021-11.944,55.583-14.942,14.787,11.152,14.787,11.152,3.382,24.969,9.283,19.818,3.437-22.6-.781-32.879-2.358-19.032-9.643-19.21c-6.328-.152-8.04,4.337-18.695,7.1s-39.683.107-41.263,0-9.272,28.958-9.272,28.958" transform="translate(36.774 81.614)" fill="#f6ba99"/>
      <path id="Trazado_8" data-name="Trazado 8" d="M119.918,162.058c-4.22-10.277-2.356-19.031-9.641-19.208A11.114,11.114,0,0,0,105.008,144a46.965,46.965,0,0,1,5.952,7.456c6.033,9.29,5.893,20.7,5.893,20.7l-5.435,2.96a98.882,98.882,0,0,0,2.518,12.146q.21.726.435,1.428c.063.193.126.385.19.574.163.484.335.954.511,1.4.083.217.17.424.256.632a13.81,13.81,0,0,0,1.525,2.828,3.889,3.889,0,0,0,1.545,1.344,1.892,1.892,0,0,0,.709.162,2.057,2.057,0,0,0,1.047-.3,3.535,3.535,0,0,0,.547-.4,7.874,7.874,0,0,0,1.834-2.47,14.45,14.45,0,0,0,1.127-3.4,25.931,25.931,0,0,0,.5-4.092c.349-7.274-1.6-16.5-4.241-22.923" transform="translate(60.043 81.614)" fill="#e6af34"/>
      <path id="Trazado_9" data-name="Trazado 9" d="M41.776,187.493s9.509,27.018,9.509,44.53-3.5,22.015-5,27.517-17.518,18.012-17.518,22.015,10.011,1,16.516-3,26.526-14.01,28.027-19.513-7.134-5.16-7.134-11.664,6.635-41.372,5.633-54.881-3.5-21.014-3.5-21.014Z" transform="translate(16.447 97.976)" fill="#f6ba99"/>
      <path id="Trazado_10" data-name="Trazado 10" d="M73.306,229.258c.784-2.874-1.2-4.156-3.269-5.647-7.846,8.193-20.754,14.654-20.754,14.654l-5.365-4.538c-2.564,3.251-6.644,7.206-9.929,10.69l-.149.159q-.361.384-.71.762c-.228.25-.453.495-.67.737l-.368.415c-.214.242-.42.481-.618.713-.088.1-.176.207-.261.31-.228.273-.44.539-.64.8l-.2.256c-.214.284-.415.559-.591.823-.036.053-.064.1-.1.156q-.231.354-.407.679c-.027.049-.057.1-.08.145a5.108,5.108,0,0,0-.289.674c-.016.047-.028.091-.041.138a2.225,2.225,0,0,0-.105.594c0,2.5,3.911,2.267,8.431.762a40.491,40.491,0,0,0,8.085-3.763c2.237-1.376,6.07-3.462,10.2-5.83l1.132-.652c1.138-.66,2.289-1.337,3.427-2.024.379-.228.758-.459,1.133-.688.75-.462,1.492-.926,2.215-1.391,1.446-.929,2.823-1.859,4.066-2.77a36.956,36.956,0,0,0,3.269-2.657,14.562,14.562,0,0,0,1.7-1.843A5.155,5.155,0,0,0,73.306,229.258Z" transform="translate(16.447 127.76)" fill="#e6af34"/>
      <path id="Trazado_11" data-name="Trazado 11" d="M53.524,42.513S52.27,33.734,41.4,34.988s-19.236,11.7-25.091,20.066S0,68.013,0,73.03s5.435,9.615,5.435,9.615-4.6,29.681-3.763,54.345S25.925,218.508,31.78,238.157s12.963,39.295,12.963,39.295,5.855,5.017,40.98-20.9,59.379-59.779,56.871-63.96-63.142-24.664-77.779-41.8-15.053-17.557-19.236-24.664a160.858,160.858,0,0,0-11.29-15.886s-1.254-17.975,4.6-32.607S54.779,53.8,53.524,42.513" transform="translate(0 19.92)" fill="#e6af34"/>
      <path id="Trazado_12" data-name="Trazado 12" d="M17.563,104.8c8.154-.679,13.467-.99,16.642-1.131.154-6.559,1.044-16.944,4.684-26.042C44.744,63,54.779,53.8,53.524,42.513c0,0-1.254-8.779-12.126-7.525s-19.236,11.7-25.089,20.066S0,68.014,0,73.03s5.437,9.615,5.437,9.615S3.582,94.619,2.443,109.672A36.057,36.057,0,0,1,17.563,104.8" transform="translate(0 19.92)" fill="#0b71aa"/>
      <path id="Trazado_13" data-name="Trazado 13" d="M64.243,123.476C49.608,106.337,49.19,105.917,45.007,98.812a160.855,160.855,0,0,0-11.29-15.886c-12.831-1.672-25.466,5.02-32.465,9.667C1,98.277.912,104.109,1.1,109.681c.836,24.664,24.253,81.517,30.108,101.165s12.963,39.3,12.963,39.3,5.855,5.017,40.98-20.9,59.379-59.78,56.869-63.96-63.142-24.664-77.777-41.8" transform="translate(0.572 47.229)" fill="#0b71aa"/>
      <path id="Trazado_14" data-name="Trazado 14" d="M125.81,92.97l.074-.355c4.808,1.212,13.917,3.33,13.983,1.992.091-1.816-13-5.418-13-5.418l-.267-.03.057-.28c4.117,1.067,15.316,3.834,15.389,2.352.09-1.816-13-5.418-13-5.418l-1.713-.2L127.7,83.8c3.95.775,10.871,1.989,10.966.988.135-1.4-10.4-3.723-10.4-3.723l-11.619-3.515s6.1-.17,9.409-.611-.233-2.087-2.161-2.382-10.649-.052-10.649-.052L91.317,83.149s1.768.823,10.081,4.778,23.789,8.061,23.789,8.061,5.993,1.7,6.2,1.072c.259-.77-2.881-2.643-5.581-4.09" transform="translate(52.215 42.517)" fill="#f6ba99"/>
      <path id="Trazado_15" data-name="Trazado 15" d="M154.454,95.8s-35.842-8.3-57.077-18.576c-24.188-11.7-50.327-32.373-56.57-37.052s-14.567-4.562-20.029,4.8S25.592,61.625,33.394,66.7s63.593,29.252,78.418,34.323S155.9,114.28,155.9,114.28Z" transform="translate(11.003 21.222)" fill="#f6ba99"/>
    </g>
  </g>
</svg>
