<svg xmlns="http://www.w3.org/2000/svg" xmlns:xlink="http://www.w3.org/1999/xlink" width="230.908" height="454.632" viewBox="0 0 230.908 454.632">
  <defs>
    <clipPath id="clip-path">
      <rect id="Rectángulo_23" data-name="Rectángulo 23" width="230.908" height="454.632" fill="none"/>
    </clipPath>
  </defs>
  <g id="Grupo_15" data-name="Grupo 15" transform="translate(-38 -3)">
    <g id="Grupo_14" data-name="Grupo 14" transform="translate(38 3)" clip-path="url(#clip-path)">
      <path id="Trazado_37" data-name="Trazado 37" d="M204.511,264.9c0,9.7-37.292,17.566-83.3,17.566S37.922,274.6,37.922,264.9s37.292-17.565,83.294-17.565,83.3,7.863,83.3,17.565" transform="translate(26.397 172.168)" fill="#ecedeb"/>
      <path id="Trazado_38" data-name="Trazado 38" d="M99.99,230.837s2.622,18.481,5.719,19.473,37.748-11.255,39.926-15.4-3.84-5.782-12.224-4.481-10.273.982-10.273.982l-2.478-6.484Z" transform="translate(69.603 156.574)" fill="#e6af34"/>
      <path id="Trazado_39" data-name="Trazado 39" d="M132.657,228.248l1.542,6.247-32.031,10.724c.633,1.63,1.318,2.782,2.027,3.007,3.1.992,37.747-11.254,39.926-15.394,2.112-4.013-3.486-5.67-11.464-4.585" transform="translate(71.119 158.656)" fill="#b3d6f9"/>
      <path id="Trazado_40" data-name="Trazado 40" d="M85.042,239.528s12.9,13.494,11.759,16.54-32.2,22.694-36.8,21.844-2.166-6.594,4.042-12.376,7.127-7.465,7.127-7.465l-3.56-5.958Z" transform="translate(40.109 166.735)" fill="#e6af34"/>
      <path id="Trazado_41" data-name="Trazado 41" d="M63.5,260.7l3.954,5.076,28.242-18.532c.889,1.506,1.37,2.756,1.109,3.455-1.138,3.046-32.2,22.692-36.8,21.842-4.459-.823-2.3-6.245,3.491-11.842" transform="translate(40.111 172.106)" fill="#b3d6f9"/>
      <path id="Trazado_42" data-name="Trazado 42" d="M137.861,26.674l-.409-.081c1.342-5.526,3.679-16,2.144-16.059-2.085-.085-6.084,14.97-6.084,14.97l-.032.309-.321-.063c1.182-4.732,4.244-17.607,2.541-17.677-2.085-.085-6.084,14.971-6.084,14.971l-.209,1.967-2.081-.41c.848-4.537,2.169-12.487,1.021-12.588-1.608-.141-4.166,11.969-4.166,11.969L120.27,37.346s-.258-7-.8-10.785-2.391.288-2.71,2.5.049,12.214.049,12.214l10.136,25.062s.926-2.037,5.38-11.613,9-27.37,9-27.37,1.889-6.89,1.167-7.125c-.887-.29-3,3.331-4.635,6.443" transform="translate(81.186 5.619)" fill="#f6ba99"/>
      <path id="Trazado_43" data-name="Trazado 43" d="M3.331,16.466l.392.024c.088-5.363.443-15.472,1.859-15.165,1.923.419,1.995,15.105,1.995,15.105l-.044.29.309.019c.046-4.6.31-17.075,1.879-16.734,1.923.419,2,15.107,2,15.107l-.278,1.844,2,.12c.3-4.34.987-11.91,2.059-11.729,1.5.253.957,11.912.957,11.912l.4,13.123s1.9-6.326,3.29-9.652,2.115.833,1.879,2.929-2.946,11.135-2.946,11.135l-15.2,20.46s-.361-2.079-2.151-11.876S0,16.265,0,16.265-.083,9.528.633,9.485c.877-.054,1.949,3.753,2.7,6.981" transform="translate(0 -0.001)" fill="#f6ba99"/>
      <path id="Trazado_44" data-name="Trazado 44" d="M86.223,110.224s-22.205-4.73-34.112-13.913C37.864,85.322,27.688,63.4,23.688,49.906s-5.322-29.392-5.322-29.392L1.013,29.1s4.05,31.493,13.053,52.131c8.06,18.477,20.133,35.7,37.859,46.368s21.01,11.854,21.01,11.854-.631,85.451-.775,86.577-10.421,60.524-4.568,98.311,37.706,84.25,37.706,84.25l22.4-13.932s-26.817-50.018-31.474-79.252,4.854-67.729,4.854-67.729l10.489-4.384s34.114,28.806,43.3,52.509,8.491,82.8,8.491,82.8l32.306-10.755s-5.682-48.074-13.287-81.123-51.933-71.562-51.933-71.562l-6.408-72.223s24.448-6.035,44.412-21.807,36.519-52.6,40.966-63.485a131.562,131.562,0,0,0,6.211-18.679L197.562,30.93a191.711,191.711,0,0,1-16.137,39.553c-10.911,19.605-28.15,34.962-48.368,40.774s-46.834-1.033-46.834-1.033" transform="translate(0.705 14.28)" fill="#f6ba99"/>
      <path id="Trazado_45" data-name="Trazado 45" d="M84.984,169.994s34.114,28.8,43.3,52.509,8.491,82.8,8.491,82.8l32.306-10.755s-5.682-48.076-13.287-81.124-51.931-71.56-51.931-71.56l-1.425-16.05A88.191,88.191,0,0,1,78.9,131.031c-16.232,1.555-26.853.48-33.065-.77-.112,12.587-.212,22.1-.259,22.468-.146,1.128-10.423,60.524-4.569,98.311s37.706,84.25,37.706,84.25l22.4-13.933S74.3,271.341,69.641,242.105,74.5,174.378,74.5,174.378Z" transform="translate(27.291 87.579)" fill="#0b71aa"/>
      <path id="Trazado_46" data-name="Trazado 46" d="M125.665,187.648l-5.446-61.387s24.446-6.035,44.412-21.805A84.184,84.184,0,0,0,179.058,89.1L164.535,71.958c-9.81,10.7-21.892,18.767-35.3,22.621C109.021,100.391,82.4,93.545,82.4,93.545s-22.2-4.73-34.11-13.913c-10.731-8.275-19.149-22.75-24.361-35.158L6.5,55.027c.765,2.848,1.438,2.96,2.249,5.414C15.081,79.58,30.38,100.25,48.106,110.919s21.011,11.856,21.011,11.856-.331,44.682-.566,69.85c8.647,3.048,28.243,6.873,57.114-4.976" transform="translate(4.524 30.958)" fill="#e6af34"/>
      <path id="Trazado_47" data-name="Trazado 47" d="M52.032,85.379l2.419,7.946-.4,9.113,8.475-6.552L70.2,89.614,65.5,75.648Z" transform="translate(36.219 52.659)" fill="#393762"/>
      <path id="Trazado_48" data-name="Trazado 48" d="M60.857,70.729s-4.181-.153-7.108,4.817-6.084,23.659-6.084,23.659,9.892-8.662,15.151-7.987S78.095,103.1,78.095,103.1s4.14-17.416,2.839-22.165S67.253,68.494,60.857,70.729" transform="translate(33.179 48.957)" fill="#a5cef8"/>
      <path id="Trazado_49" data-name="Trazado 49" d="M56.344,64.887s-3.1,15.258-3.165,21.741,4.413,16.221,4.413,16.221L70.228,87.666l4.978-15.017Z" transform="translate(37.017 45.168)" fill="#f2957e"/>
      <path id="Trazado_50" data-name="Trazado 50" d="M114.119,69.585c-2.378,18.571-19.61,31.664-38.491,29.246s-32.26-19.43-29.882-38,19.61-31.664,38.491-29.246,32.26,19.43,29.882,38" transform="translate(31.653 21.787)" fill="#393762"/>
      <path id="Trazado_51" data-name="Trazado 51" d="M57.769,58.946s-1.476-9.352-5.529-4.527-.317,11.415,2.313,11.752,3.216-7.225,3.216-7.225" transform="translate(35.118 36.919)" fill="#f6ba99"/>
      <path id="Trazado_52" data-name="Trazado 52" d="M73.373,59.192s4.99-3.18,5.914,1.521A8.585,8.585,0,0,1,74.281,70c-2.4.838-3.613-1.608-3.613-1.608Z" transform="translate(49.192 40.472)" fill="#f6ba99"/>
      <path id="Trazado_53" data-name="Trazado 53" d="M60.128,47.828s-9.417,22.85-6.486,32.77S65.25,94.3,74.892,90.575,92.427,55.018,92.427,55.018s-8.865-20.226-32.3-7.19" transform="translate(36.946 30.245)" fill="#f6ba99"/>
      <path id="Trazado_54" data-name="Trazado 54" d="M23.933,44.474,6.5,55.025c.767,2.849,1.438,2.961,2.251,5.416.449,1.364.958,2.736,1.5,4.11l19.519-8.029a124.652,124.652,0,0,1-5.833-12.047" transform="translate(4.524 30.958)" fill="#a5cef8"/>
      <path id="Trazado_55" data-name="Trazado 55" d="M94.019,69.644l16.4,17.337a103.774,103.774,0,0,0,7.716-9.157L103.612,60.678a87.328,87.328,0,0,1-9.593,8.966" transform="translate(65.446 42.238)" fill="#a5cef8"/>
    </g>
  </g>
</svg>
