<svg id="Grupo_10" data-name="Grupo 10" xmlns="http://www.w3.org/2000/svg" xmlns:xlink="http://www.w3.org/1999/xlink" width="286.799" height="405.155" viewBox="0 0 286.799 405.155">
  <defs>
    <clipPath id="clip-path">
      <rect id="Rectángulo_17" data-name="Rectángulo 17" width="286.799" height="405.155" fill="none"/>
    </clipPath>
  </defs>
  <g id="Grupo_9" data-name="Grupo 9" clip-path="url(#clip-path)">
    <path id="Trazado_16" data-name="Trazado 16" d="M194.434,285.114c0,7.952-30.567,14.4-68.274,14.4s-68.273-6.446-68.273-14.4,30.567-14.4,68.273-14.4,68.274,6.445,68.274,14.4" transform="translate(22.589 105.642)" fill="#ecedeb"/>
    <path id="Trazado_17" data-name="Trazado 17" d="M130.139,9.007l-.245.16c-2.038-3.431-6-9.832-6.8-9.11-1.087.982,4.293,10.5,4.293,10.5l.135.171-.192.127C125.6,7.895,120.817-.066,119.929.734c-1.089.982,4.293,10.5,4.293,10.5l.861,1.09-1.246.816c-1.8-2.693-5.038-7.331-5.664-6.818-.876.719,3.783,8.049,3.783,8.049l4.592,8.625s-3.565-3.387-5.692-5.02-1.059,1.318-.133,2.586,6.018,6.1,6.018,6.1l17.382,7.6s-.535-1.476-3-8.466-8.91-18.151-8.91-18.151S129.781,3.263,129.3,3.5c-.587.291.128,3.146.836,5.508" transform="translate(46.072 0)" fill="#f6ba99"/>
    <path id="Trazado_18" data-name="Trazado 18" d="M50.047,164.386l.284-.068c.77,3.916,2.356,11.275,3.353,10.865,1.354-.559-.523-11.329-.523-11.329l-.07-.206.224-.054c.637,3.363,2.469,12.468,3.574,12.012,1.354-.559-.523-11.328-.523-11.328l-.445-1.315,1.447-.352c.792,3.141,2.287,8.6,3.049,8.323,1.065-.384-.863-8.853-.863-8.853l.015-10.015s2.22,4.385,3.677,6.638,1.44-.887.993-2.393-3.622-7.769-3.622-7.769L51.861,134.78s-7.709,6.091-7.732,13.5,3.508,16.687,3.508,16.687.82,4.946,1.35,4.885c.651-.076.936-3.007,1.061-5.469" transform="translate(17.22 52.595)" fill="#f6ba99"/>
    <path id="Trazado_19" data-name="Trazado 19" d="M39.142,190.52s-7.429-14.613-10.285-14.556S.684,196.038.05,200.1s4.834,3.713,11.432.25,8.259-3.733,8.259-3.733l3.9,4.685Z" transform="translate(0 68.666)" fill="#0b71aa"/>
    <path id="Trazado_20" data-name="Trazado 20" d="M10.879,200.651,7.823,195.9,31.4,177.887c-.991-1.175-1.887-1.937-2.54-1.924C26,176.019.684,196.038.05,200.1c-.616,3.934,4.506,3.722,10.828.553" transform="translate(0 68.666)" fill="#b3d6f9"/>
    <path id="Trazado_21" data-name="Trazado 21" d="M184.984,269.806s13.594,9.164,16.061,7.727S215.918,246.3,214.5,242.444s-6.029-.9-10.114,5.334-5.405,7.275-5.405,7.275l-5.686-2.2Z" transform="translate(72.186 93.935)" fill="#0b71aa"/>
    <path id="Trazado_22" data-name="Trazado 22" d="M201.144,247.22l4.98,2.671-11.855,27.194c1.436.546,2.589.777,3.154.448,2.469-1.436,14.871-31.233,13.455-35.089-1.375-3.738-5.747-1.064-9.734,4.777" transform="translate(75.809 93.935)" fill="#b3d6f9"/>
    <path id="Trazado_23" data-name="Trazado 23" d="M192.022,284.059c-19.871-29.017-26.178-54.249-25.547-62.133s7.568-53.934,10.723-65.6,4.731-15.455,4.731-15.455,11.985-32.171,13.877-60.241-15.454-66.235-15.454-66.235l-12.616,5.047s11.354,39.426,10.093,61.188-8.517,40.371-14.193,43.21a48.9,48.9,0,0,1-9.777,3.784s-.5.232-1.545.7c-2.334,1.054-7.4,3.312-15.705,6.858l-.413,21.77s-2.523,35.956-15.771,64.974S85.1,293.521,79.739,296.36s-37.848-36.271-41-41.633a108.65,108.65,0,0,0-5.993-9.146L11.612,269.235s15.455,24.917,42.264,42.9,37.848,23.024,42.894,18.608S140.6,258.07,140.6,258.07s19.857,38.379,46.98,68.972,60.265,42.807,60.265,42.807l16.4-29.964s-52.356-26.809-72.227-55.826" transform="translate(4.531 5.616)" fill="#e6af34"/>
    <path id="Trazado_24" data-name="Trazado 24" d="M137.552,164.044c.029-.357.075-.82.128-1.329A135.069,135.069,0,0,1,111.4,165.6c-9.928,0-16.134-1.178-19.622-2.176-.093.206-.181.414-.274.619-1.785,3.909-3.734,8.069-5.776,12.341a81.651,81.651,0,0,0,29.216,2.885,86.919,86.919,0,0,0,23.849-4.856,37.923,37.923,0,0,1-1.24-10.37" transform="translate(33.453 63.496)" fill="#15353e"/>
    <path id="Trazado_25" data-name="Trazado 25" d="M106.185,225.295a99.071,99.071,0,0,0,23.471,3.249c8.619,0,17.689-2.29,24.12-4.354a17.865,17.865,0,0,1,.008-2.265c.631-7.885,7.57-53.934,10.723-65.6s4.731-15.455,4.731-15.455,11.987-32.171,13.879-60.241S167.662,14.39,167.662,14.39l-12.616,5.047S166.4,58.862,165.139,80.625s-8.515,40.371-14.193,43.21a48.974,48.974,0,0,1-9.777,3.786s-.5.231-1.545.7c-3.349,1.513-12.31,5.5-28.419,12.227-21.131,8.832-37.657,12.433-55.195,31.856a53.046,53.046,0,0,0-11.881,22.855,16.162,16.162,0,0,1,5.037-.635,43.2,43.2,0,0,1,12.726,2.063c-.14-2.062.545-4.684,3.58-8.2,5.993-6.94,13.877-14.824,25.864-20.817s32.17-10.723,32.17-10.723-2.523,35.955-15.769,64.972c-.5,1.1-1.023,2.231-1.551,3.37" transform="translate(17.22 5.615)" fill="#0b71aa"/>
    <path id="Trazado_26" data-name="Trazado 26" d="M126.655,94.167a48.975,48.975,0,0,1-9.777,3.786s-.5.231-1.545.7c-1.615.73-4.553,2.041-8.954,3.952,3.363,7.042,10.313,19.966,16.2,20.335,8.1.5,8.606-9.114,8.606-19.744a92.781,92.781,0,0,0-.822-12.785,10.967,10.967,0,0,1-3.706,3.752" transform="translate(41.512 35.283)" fill="#e6af34"/>
    <path id="Trazado_27" data-name="Trazado 27" d="M110.3,91.073s2.208,8.831,4.415,15.455,4.1,13.246,9.148,9.462,1.892-13.879,1.577-17.032-.316-5.047-.316-5.047Z" transform="translate(43.042 35.539)" fill="#f2957e"/>
    <path id="Trazado_28" data-name="Trazado 28" d="M130.563,74.371s-1.892-9.777-3.786-16.085-10.092-6.624-10.092-2.523a8.721,8.721,0,0,0,2.523,6.307s-12.932-4.1-15.455-.947,0,5.047,0,5.047-10.093-.316-10.093,5.047,6.623,5.362,6.623,5.362-9.462,1.578-6.623,5.993a10.023,10.023,0,0,0,7.885,4.415s-4.1,2.839-1.892,5.047,8.831,8.515,8.831,8.515,5.678,1.892,5.678-2.839S108.17,88.88,112.9,83.2s17.663-2.837,17.663-8.831" transform="translate(36.342 20.701)" fill="#393762"/>
    <path id="Trazado_29" data-name="Trazado 29" d="M106.275,92.03s-2.839-4.1-5.047-1.262.316,8.517,4.415,9.148,5.362.316,5.362.316,9.462,6.939,20.186,4.731,3.153-20.5.63-28.7-6.307-9.462-11.67-9.462S104.068,74.682,104.7,80.991s3.153,11.038,1.576,11.038" transform="translate(39.183 26.066)" fill="#f6ba99"/>
  </g>
</svg>
